<?xml version="1.0" encoding="UTF-8"?>
<svg width="440px" height="86px" viewBox="0 0 440 86" version="1.1" xmlns="http://www.w3.org/2000/svg" xmlns:xlink="http://www.w3.org/1999/xlink">
    <title>Untitled 9</title>
    <g id="Page-1" stroke="none" stroke-width="1" fill="none" fill-rule="evenodd">
        <g id="Group-2" fill-rule="nonzero">
            <g id="Erikbank_barblue" transform="translate(0.000000, 6.000000)">
                <rect id="Rectangle" fill="#8497FF" x="0" y="0" width="82" height="20" rx="10"></rect>
                <rect id="Rectangle" fill="#4F6BFF" x="0" y="30" width="144" height="20" rx="10"></rect>
                <rect id="Rectangle" fill="#0028FF" x="0" y="60" width="439" height="20" rx="10"></rect>
            </g>
            <g id="erikbank-2" transform="translate(155.000000, 0.000000)" fill="#000000">
                <path d="M1.05263159,59.1135738 L33.9058174,59.1135738 L33.9058174,53.7950142 L8.31024937,53.7950142 L8.31024937,32.7423825 L28.1440445,32.7423825 L28.1440445,27.4792246 L8.31024937,27.4792246 L8.31024937,8.03324105 L33.9058174,8.03324105 L33.9058174,2.6592798 L0,2.6592798 C0.0554016624,3.1024931 1.05263159,7.64542942 1.05263159,7.75623274 L1.05263159,59.1135738 Z M43.2686984,59.1135738 L49.6952912,59.1135738 L49.6952912,33.5180058 C52.354571,29.6398894 55.6786708,26.7036013 60.6648204,26.7036013 L62.2160669,19.8891968 C57.0637123,19.8891968 52.2437677,22.8808866 49.5290862,27.0914129 C49.3074796,24.7091414 48.6980613,22.1052633 47.756233,19.8891968 L40.7756236,20.7202218 C42.5484768,23.3795015 43.2686984,28.1994462 43.2686984,31.191136 L43.2686984,59.1135738 Z M78.3933524,7.64542942 C78.3933524,5.04155128 76.2326875,2.88088645 73.684211,2.88088645 C71.1357346,2.88088645 69.0304714,5.04155128 69.0304714,7.64542942 C69.0304714,10.1939059 71.1357346,12.3545707 73.684211,12.3545707 C76.2880892,12.3545707 78.3933524,10.2493076 78.3933524,7.64542942 Z M70.5817179,59.1135738 L77.0083108,59.1135738 L77.0083108,20.5540168 L69.6398897,20.5540168 C69.6952913,21.0526317 70.5817179,24.9861498 70.5817179,25.1523547 L70.5817179,59.1135738 Z M111.96676,59.1135738 L119.667591,59.1135738 L102.770084,36.7867039 L117.562328,20.5540168 L110.692522,20.5540168 L96.2326877,36.4542939 L96.2326877,-3.55271368e-15 L88.8088649,-3.55271368e-15 C88.8642666,0.387811637 89.8060948,4.432133 89.8060948,4.59833798 L89.8060948,59.1135738 L96.2326877,59.1135738 L96.2326877,38.1717454 L111.96676,59.1135738 Z M126.094184,59.1135738 L141.440444,59.1135738 C152.465375,59.1135738 163.545708,56.786704 163.545708,43.3241 C163.545708,35.7894739 159.168976,29.4736844 151.468145,28.3102495 C157.506926,27.2576179 160.997231,21.6066484 160.997231,15.7894738 C160.997231,5.31855959 152.686982,2.6592798 143.878117,2.6592798 L125.041552,2.6592798 C125.096954,3.1024931 126.094184,7.64542942 126.094184,7.75623274 L126.094184,59.1135738 Z M141.606649,25.9833797 L133.2964,25.9833797 L133.2964,8.03324105 L143.656511,8.03324105 C148.919669,8.03324105 153.462605,9.80609425 153.462605,15.9002771 C153.462605,23.5457065 148.808865,25.9833797 141.606649,25.9833797 Z M141.939059,53.7950142 L133.2964,53.7950142 L133.2964,31.3573409 L141.939059,31.3573409 C148.753464,31.3573409 155.900278,34.2382274 155.900278,42.1606651 C155.900278,51.3573409 150.083104,53.7950142 141.939059,53.7950142 Z M205.761774,57.5069256 L204.432134,53.4626043 C204.044323,53.6288092 200.94183,54.5706375 200.775625,54.5706375 C199.335181,54.5706375 199.113575,53.4626043 199.113575,51.5789477 L199.113575,32.3545709 C199.113575,24.3213298 194.903048,19.6675902 186.759004,19.6675902 C181.329641,19.6675902 176.232688,21.2742384 171.96676,24.7091414 L175.124655,29.2520778 C177.673131,26.3157897 182.437674,24.7091414 186.204987,24.7091414 C191.246539,24.7091414 192.63158,28.0886429 192.63158,32.4653742 L192.63158,36.5650972 C183.656511,36.6204989 170.526317,38.1163438 170.526317,49.8060945 C170.526317,56.1772857 175.069253,60.0000004 181.163436,60.0000004 C185.595569,60.0000004 189.806096,57.7285323 192.797785,54.5706375 C193.2964,57.5069256 195.124655,59.8337954 198.337952,59.8337954 C200.775625,59.8337954 203.490306,58.3379505 205.761774,57.5069256 Z M192.63158,41.6066485 L192.63158,44.0997233 C192.63158,49.1966762 188.753464,54.5706375 183.268699,54.5706375 C179.722993,54.5706375 177.119115,53.019391 177.119115,49.5844879 C177.119115,41.8836568 187.091414,41.6066485 192.63158,41.6066485 Z M235.069254,59.1135738 L241.440445,59.1135738 L241.440445,33.3518008 C241.440445,25.3739614 238.171747,19.6675902 229.639891,19.6675902 C225.152356,19.6675902 220.720223,22.3822716 217.61773,25.4847647 C217.396123,23.6011082 216.842107,21.7174517 216.177287,19.9445985 L209.085874,20.8864267 C211.024932,23.5457065 211.634351,28.6980611 211.634351,31.8005542 L211.634351,59.1135738 L218.005542,59.1135738 L218.005542,30.526316 C220.720223,27.9224379 224.764545,25.3739614 228.587259,25.3739614 C234.792245,25.3739614 235.069254,30.6371193 235.069254,35.457064 L235.069254,59.1135738 Z M276.343492,59.1135738 L284.044323,59.1135738 L267.091415,36.7867039 L281.93906,20.5540168 L275.013852,20.5540168 L260.60942,36.4542939 L260.60942,-3.55271368e-15 L253.130196,-3.55271368e-15 C253.240999,0.387811637 254.182827,4.432133 254.182827,4.59833798 L254.182827,59.1135738 L260.60942,59.1135738 L260.60942,38.1717454 L276.343492,59.1135738 Z" id="Shape"></path>
            </g>
        </g>
    </g>
</svg>