<?xml version="1.0" encoding="UTF-8"?>
<svg width="1832px" height="392px" viewBox="0 0 1832 392" version="1.1" xmlns="http://www.w3.org/2000/svg" xmlns:xlink="http://www.w3.org/1999/xlink">
    <title>erikbank</title>
    <g id="Page-1" stroke="none" stroke-width="1" fill="none" fill-rule="evenodd">
        <g id="default-monochrome" transform="translate(0.000000, -0.000000)" fill="#000000" fill-rule="nonzero">
            <path d="M6.76321436,380.297322 L217.846694,380.297322 L217.846694,346.081256 L53.3937975,346.081256 L53.3937975,210.642659 L180.826994,210.642659 L180.826994,176.78301 L53.3937975,176.78301 L53.3937975,51.6805171 L217.846694,51.6805171 L217.846694,17.1080332 L0,17.1080332 C0.35595865,19.9593721 6.76321436,49.1855956 6.76321436,49.8984303 L6.76321436,380.297322 Z M278.003706,380.297322 L319.294909,380.297322 L319.294909,215.632502 C336.380925,190.683287 357.738444,171.793167 389.774722,171.793167 L399.741564,127.953832 C366.63741,127.953832 335.669007,147.200369 318.227033,174.288089 C316.803199,158.962142 312.887654,142.210526 306.836357,127.953832 L261.985567,133.300092 C273.376243,150.408126 278.003706,181.416436 278.003706,200.662973 L278.003706,380.297322 Z M503.68149,49.1855956 C503.68149,32.4339797 489.799103,18.5337027 473.425005,18.5337027 C457.050907,18.5337027 443.524478,32.4339797 443.524478,49.1855956 C443.524478,65.5807941 457.050907,79.4810711 473.425005,79.4810711 C490.155061,79.4810711 503.68149,65.9372114 503.68149,49.1855956 Z M453.49132,380.297322 L494.782524,380.297322 L494.782524,132.23084 L447.440023,132.23084 C447.795982,135.438596 453.49132,160.744229 453.49132,161.813481 L453.49132,380.297322 Z M719.392432,380.297322 L768.870685,380.297322 L660.303296,236.661127 L755.344256,132.23084 L711.205383,132.23084 L618.300176,234.522622 L618.300176,0 L570.601716,0 C570.957675,2.49492151 577.008972,28.5133887 577.008972,29.5826408 L577.008972,380.297322 L618.300176,380.297322 L618.300176,245.57156 L719.392432,380.297322 Z M810.161888,380.297322 L908.762434,380.297322 C979.598206,380.297322 1050.78994,365.327793 1050.78994,278.718375 C1050.78994,230.245614 1022.6692,189.614035 973.19095,182.129271 C1011.99044,175.357341 1034.41584,139.00277 1034.41584,101.578947 C1034.41584,34.2160665 981.02204,17.1080332 924.424615,17.1080332 L803.398674,17.1080332 C803.754632,19.9593721 810.161888,49.1855956 810.161888,49.8984303 L810.161888,380.297322 Z M909.83031,167.159741 L856.436513,167.159741 L856.436513,51.6805171 L923.00078,51.6805171 C956.816852,51.6805171 986.005461,63.0858726 986.005461,102.291782 C986.005461,151.477378 956.104935,167.159741 909.83031,167.159741 Z M911.966062,346.081256 L856.436513,346.081256 L856.436513,201.732225 L911.966062,201.732225 C955.748976,201.732225 1001.66764,220.265928 1001.66764,271.23361 C1001.66764,330.398892 964.291984,346.081256 911.966062,346.081256 Z M1322.03043,369.961219 L1313.48742,343.942752 C1310.99571,345.012004 1291.06202,351.071099 1289.99415,351.071099 C1280.73922,351.071099 1279.31539,343.942752 1279.31539,331.824561 L1279.31539,208.147738 C1279.31539,156.467221 1252.26253,126.528163 1199.93661,126.528163 C1165.05266,126.528163 1132.30447,136.864266 1104.89565,158.962142 L1125.18529,188.188366 C1141.55939,169.298246 1172.17184,158.962142 1196.37702,158.962142 C1228.76926,158.962142 1237.66823,180.703601 1237.66823,208.860572 L1237.66823,235.235457 C1180.00293,235.591874 1095.64073,245.215143 1095.64073,320.419206 C1095.64073,361.407202 1124.82933,386 1163.98479,386 C1192.46148,386 1219.51434,371.386888 1238.7361,351.071099 C1241.93973,369.961219 1253.68637,384.930748 1274.33197,384.930748 C1289.99415,384.930748 1307.43612,375.307479 1322.03043,369.961219 Z M1237.66823,267.669437 L1237.66823,283.708218 C1237.66823,316.498615 1212.75112,351.071099 1177.51122,351.071099 C1154.72986,351.071099 1137.9998,341.091413 1137.9998,318.993536 C1137.9998,269.451524 1202.07236,267.669437 1237.66823,267.669437 Z M1510.33255,380.297322 L1551.2678,380.297322 L1551.2678,214.56325 C1551.2678,163.239151 1530.26624,126.528163 1475.44861,126.528163 C1446.61595,126.528163 1418.13926,143.992613 1398.20558,163.951985 C1396.78174,151.833795 1393.22216,139.715605 1388.95065,128.310249 L1343.38795,134.369344 C1355.8465,151.477378 1359.76204,184.624192 1359.76204,204.583564 L1359.76204,380.297322 L1400.69729,380.297322 L1400.69729,196.385965 C1418.13926,179.634349 1444.12424,163.239151 1468.68539,163.239151 C1508.55276,163.239151 1510.33255,197.0988 1510.33255,228.10711 L1510.33255,380.297322 Z M1775.52175,380.297322 L1825,380.297322 L1716.07665,236.661127 L1811.47357,132.23084 L1766.97874,132.23084 L1674.42949,234.522622 L1674.42949,0 L1626.37507,0 C1627.08699,2.49492151 1633.13829,28.5133887 1633.13829,29.5826408 L1633.13829,380.297322 L1674.42949,380.297322 L1674.42949,245.57156 L1775.52175,380.297322 Z" id="Shape"></path>
        </g>
    </g>
</svg>